<svg fill="#864def"  xmlns="http://www.w3.org/2000/svg" xmlns:xlink="http://www.w3.org/1999/xlink" version="1.1" x="0px" y="0px" viewBox="0 0 100 125" style="enable-background:new 0 0 100 100;" xml:space="preserve"><g><path d="M88.244,22.43H31.686c-0.868,0-1.571,0.703-1.571,1.571v8.348c-6.537,0.058-11.838,5.312-11.838,11.772   c0,6.46,5.301,11.714,11.838,11.772v1.492c-10.999,0.056-19.93,8.382-19.93,18.614c0,0.868,0.703,1.571,1.571,1.571h36.938   c0.868,0,1.571-0.703,1.571-1.571c0-1.633-0.25-3.209-0.677-4.719h38.656c0.868,0,1.571-0.703,1.571-1.571V24.001   C89.815,23.133,89.112,22.43,88.244,22.43z M21.419,44.121c0-4.765,3.949-8.641,8.804-8.641s8.803,3.875,8.803,8.641   c0,4.765-3.949,8.641-8.803,8.641S21.419,48.886,21.419,44.121z M13.413,74.428c0.862-7.8,8.073-13.906,16.812-13.906   s15.95,6.106,16.812,13.906H13.413z M86.673,68.138H48.366c-0.858-1.701-1.982-3.259-3.327-4.634l11.019-9.5   c0.657-0.568,0.731-1.559,0.166-2.215c-0.565-0.66-1.562-0.727-2.215-0.166l-11.36,9.794c-2.666-1.965-5.88-3.302-9.392-3.801   v-2.146c5.113-1.334,8.911-5.894,8.911-11.35c0-5.456-3.798-10.015-8.911-11.35v-7.199h53.416V68.138z"/><path d="M54.162,36.999h25.987c0.868,0,1.571-0.703,1.571-1.571s-0.703-1.571-1.571-1.571H54.162c-0.868,0-1.571,0.703-1.571,1.571   S53.294,36.999,54.162,36.999z"/><path d="M54.162,45.284h25.987c0.868,0,1.571-0.703,1.571-1.571c0-0.868-0.703-1.571-1.571-1.571H54.162   c-0.868,0-1.571,0.703-1.571,1.571C52.591,44.581,53.294,45.284,54.162,45.284z"/></g><text x="0" y="115" fill="#000000" font-size="5px" font-weight="bold" font-family="'Helvetica Neue', Helvetica, Arial-Unicode, Arial, Sans-serif">Created by Matheus Oliveira de Fraga</text><text x="0" y="120" fill="#000000" font-size="5px" font-weight="bold" font-family="'Helvetica Neue', Helvetica, Arial-Unicode, Arial, Sans-serif">from the Noun Project</text></svg>